HIERARCHY
ROOT pelvis
{
  OFFSET 0 100 0
  CHANNELS 6 Xposition Yposition Zposition Zrotation Xrotation Yrotation
  JOINT pelvis_right_femur
  {
    OFFSET -10.78128 -3.44521 -0.5502486
    CHANNELS 3 Zrotation Xrotation Yrotation
    JOINT right_femur_tibia
    {
      OFFSET -0.8047443 -44.0398 -0.1307829
      CHANNELS 3 Zrotation Xrotation Yrotation
      JOINT right_tibia_foot
      {
        OFFSET 3.006224 -47.83518 -5
        CHANNELS 3 Zrotation Xrotation Yrotation
        End Site
        {
          OFFSET 0 -5 15
        }
      }
    }
  }
  JOINT pelvis_left_femur
  {
    OFFSET 10.78128 -3.44521 -0.5502486
    CHANNELS 3 Zrotation Xrotation Yrotation
    JOINT left_femur_tibia
    {
      OFFSET 0.8047443 -44.0398 -0.1307829
      CHANNELS 3 Zrotation Xrotation Yrotation
      JOINT left_tibia_foot
      {
        OFFSET -4.370144 -48.10324 -4.275266
        CHANNELS 3 Zrotation Xrotation Yrotation
        End Site
        {
          OFFSET 0 -5 15
        }
      }
    }
  }
  JOINT pelvis_spine1
  {
    OFFSET 0 6.468898 -3.129235
    CHANNELS 3 Zrotation Xrotation Yrotation
    JOINT spine1
    {
      OFFSET 0 23.15396 4.99043
      CHANNELS 3 Zrotation Xrotation Yrotation
      JOINT spine2
      {
        OFFSET 0 20.79997 -5.064912
        CHANNELS 3 Zrotation Xrotation Yrotation
        JOINT neck
        {
          OFFSET 0 14.38658 9.616178
          CHANNELS 3 Zrotation Xrotation Yrotation
          End Site
          {
            OFFSET 0 20 0
          }
        }
      }
      JOINT right_manubrium
      {
        OFFSET -5.722621 16.35077 3.967754
        CHANNELS 3 Zrotation Xrotation Yrotation
        JOINT right_clavicle
        {
          OFFSET -13.16364 1.694482 -4.693211
          CHANNELS 3 Zrotation Xrotation Yrotation
          JOINT right_humerus
          {
            OFFSET -28.5034 -0.3100689 -2.792744
            CHANNELS 3 Zrotation Xrotation Yrotation
            JOINT right_radius
            {
              OFFSET -25.15693 0.02248979 -1.271978
              CHANNELS 3 Zrotation Xrotation Yrotation
              End Site
              {
                OFFSET -15 0 0
              }
            }
          }
        }
      }
      JOINT left_manubrium
      {
        OFFSET 5.722621 16.35077 3.967754
        CHANNELS 3 Zrotation Xrotation Yrotation
        JOINT left_clavicle
        {
          OFFSET 13.16364 1.694482 -4.693211
          CHANNELS 3 Zrotation Xrotation Yrotation
          JOINT left_humerus
          {
            OFFSET 29.39168 -1.063119 -2.237045
            CHANNELS 3 Zrotation Xrotation Yrotation
            JOINT left_radius
            {
              OFFSET 24.59957 -0.9528479 0.9047498
              CHANNELS 3 Zrotation Xrotation Yrotation
              End Site
              {
                OFFSET 15 -0 -0
              }
            }
          }
        }
      }
    }
  }
}
MOTION
Frames: 11
Frame Time: 0.0416666666667
0 103.5113 0 2.305811 -1.078087 -0.1293206 1.482683 -10.0524 9.027849 -1.538833e-09 34.93979 3.172659e-10 -4.990211 -19.07266 -3.054022 -8.332275 9.659593 -24.2619 -2.387974e-09 5.717051 5.4804e-09 8.896303 -16.28982 28.05584 -4.905477 -5.340394 5.577301 2.239458 9.049264 -7.450285 1.333163 22.71743 6.587704 3.244127 -23.56371 8.815805 6.387197 -19.99672 11.40692 85.34505 35.74444 -19.43086 -5.219002e-10 -3.852563e-10 16.40939 -6.885671 7.764909 3.996803 5.642001 -19.62549 -1.181598 -94.90822 29.82147 23.36614 7.723471e-10 -4.972462e-10 -16.78763 3.928597 18.47071 9.02702
0.3059585 103.7477 1.416499 1.782353 -1.067131 -0.1433114 2.164534 -12.82682 8.942735 -7.741359e-10 37.88153 2.126268e-10 -5.083823 -18.03786 -3.310891 -7.883568 10.54055 -23.84562 -1.648791e-09 5.575444 3.218055e-09 8.333499 -16.91679 27.09517 -4.498572 -4.769457 5.11814 2.284266 9.076213 -7.629251 1.261234 22.64326 6.735053 3.131814 -23.71588 9.011246 6.431356 -19.85992 11.48102 85.79643 35.58804 -19.59298 -3.290713e-10 -1.681052e-10 16.47988 -6.891087 8.040973 4.063078 5.504188 -19.65737 -1.338562 -94.87878 29.84582 23.32872 5.758827e-10 -4.185127e-10 -16.79212 3.795496 18.19259 9.32278
0.6097182 103.9844 2.915825 1.208312 -0.8322558 -0.02698072 2.981313 -15.94944 8.722806 -1.163766e-10 38.88105 8.68332e-11 -5.253941 -16.73189 -3.369635 -7.363262 11.24186 -23.27484 -8.394353e-10 5.451656 1.26771e-09 7.599217 -17.69784 25.99447 -4.024541 -4.129382 4.650595 2.380662 9.065888 -7.797739 1.185425 22.49992 6.927436 3.092435 -23.97205 9.19486 6.415188 -19.68133 11.5599 86.1333 35.43871 -19.7597 -1.452161e-10 2.571659e-11 16.39773 -7.028571 8.285467 4.224711 5.523801 -19.77591 -1.455146 -94.77182 29.72134 23.15835 3.905337e-10 -3.322271e-10 -16.98174 3.772819 17.87705 9.455541
0.9085777 104.1461 4.59166 0.674612 -0.3115334 0.1982933 3.802809 -19.26058 8.346477 3.106297e-10 37.86941 5.215031e-11 -5.366843 -15.0718 -3.18378 -6.903977 11.83729 -22.61455 -2.146471e-10 5.454496 -1.842846e-10 6.732869 -18.69591 24.79687 -3.562986 -3.522544 4.249523 2.504863 8.984043 -7.93922 1.128835 22.29877 7.166317 3.146767 -24.35184 9.385298 6.325554 -19.43045 11.60846 86.42615 35.29239 -20.02625 -1.151717e-11 1.501902e-10 16.14217 -7.329081 8.459534 4.448919 5.729384 -19.97246 -1.496972 -94.62613 29.48225 22.83476 2.213995e-10 -2.46234e-10 -17.43997 3.835795 17.53739 9.44693
1.197452 104.1457 6.469394 0.2762656 0.4139286 0.4974474 4.508354 -22.51961 7.863365 3.516278e-10 34.79874 1.895969e-10 -5.378191 -13.18666 -2.7773 -6.60408 12.26456 -21.95359 3.699348e-11 5.634238 -7.880445e-10 5.898177 -19.88115 23.68608 -3.201807 -2.987958 3.979675 2.64372 8.861398 -8.036417 1.100542 22.04096 7.43133 3.302042 -24.79859 9.559897 6.17652 -19.11897 11.62645 86.55669 35.16545 -20.37836 3.09467e-11 1.611397e-10 15.70977 -7.750158 8.525972 4.68084 6.11752 -20.23968 -1.482195 -94.34878 29.16294 22.31813 8.725213e-11 -1.744199e-10 -18.17787 3.967549 17.19203 9.28998
1.474243 103.942 8.590944 -0.03375216 1.292631 0.8443089 5.089986 -25.58609 7.318807 1.456575e-10 30.42277 4.084433e-10 -5.356323 -11.1543 -2.267967 -6.40786 12.59729 -21.28282 -1.923438e-11 6.025916 -7.44142e-10 5.037875 -21.09887 22.57165 -2.922582 -2.540379 3.79721 2.799477 8.698604 -8.11441 1.09406 21.73144 7.695448 3.514702 -25.2777 9.712807 6.002942 -18.74867 11.60878 86.57882 35.10167 -20.78617 3.545224e-12 8.775582e-11 15.15025 -8.222839 8.558336 4.921816 6.597506 -20.52616 -1.403636 -93.98378 28.7898 21.71341 -1.921239e-11 -1.097644e-10 -19.00387 4.109014 16.82411 9.07839
1.738153 103.5243 11.06189 -0.2976457 2.240884 1.221304 5.511845 -28.18589 6.682481 -1.37429e-10 25.36748 5.816047e-10 -5.344868 -9.223204 -1.789092 -6.235883 12.92935 -20.5381 -2.715158e-10 6.660721 -3.335084e-10 4.028028 -22.14891 21.31945 -2.692279 -2.224384 3.660484 2.956138 8.464593 -8.190392 1.112043 21.42522 7.908583 3.715491 -25.70061 9.829989 5.787906 -18.31056 11.53054 86.67062 35.05203 -21.24616 -5.91712e-11 -2.689018e-11 14.50526 -8.740209 8.640938 5.184523 7.093483 -20.80304 -1.248325 -93.57012 28.37354 21.00407 -9.554093e-11 -4.50496e-11 -19.8258 4.244014 16.44125 8.849769
1.991964 102.9602 13.96926 -0.6129627 3.086196 1.62985 5.867843 -30.14497 6.092583 -2.811618e-10 21.15694 6.463213e-10 -5.442502 -7.604546 -1.487605 -5.98098 13.30881 -19.72995 -4.212628e-10 7.757075 -6.216064e-11 2.82082 -22.73131 19.87578 -2.431445 -2.010398 3.487099 3.103524 8.200766 -8.286059 1.132189 21.16994 8.041314 3.836718 -26.01298 9.901596 5.600372 -17.83371 11.42222 86.90344 35.0456 -21.68252 -9.317068e-11 -1.000286e-10 13.85917 -9.181531 8.835888 5.442193 7.443111 -21.00359 -1.051279 -93.19672 27.98735 20.35245 -1.583123e-10 2.278607e-11 -20.38498 4.326725 16.0568 8.710252
2.238164 102.38 17.37645 -1.039865 3.732871 2.067785 6.241686 -31.24467 5.63564 -2.041216e-10 18.58072 5.852749e-10 -5.736078 -6.46757 -1.381701 -5.571459 13.72244 -18.88241 -1.86809e-10 9.523923 -9.827417e-11 1.444186 -22.54192 18.23352 -2.070219 -1.914701 3.239935 3.236898 7.952013 -8.402245 1.127869 20.96355 8.07183 3.846358 -26.18693 9.89129 5.490115 -17.35198 11.30979 87.17105 35.09291 -22.01279 -5.479967e-11 -7.741029e-11 13.23199 -9.427677 9.136661 5.652018 7.533769 -21.09326 -0.8484007 -92.80255 27.6544 19.86209 -2.028764e-10 8.853822e-11 -20.54987 4.387781 15.70286 8.655193
2.488171 101.987 21.34271 -1.606786 4.101184 2.52977 6.702796 -31.24596 5.388065 1.767183e-10 18.43889 3.980447e-10 -6.274586 -5.68517 -1.448022 -4.998752 14.02537 -17.99139 6.222992e-10 12.42125 -7.193095e-10 -0.038084 -21.34435 16.45685 -1.567988 -1.935256 2.919973 3.34135 7.789234 -8.525604 1.077364 20.80151 8.009075 3.753509 -26.23749 9.777798 5.513537 -16.89569 11.23208 87.39361 35.22552 -22.16639 8.43733e-11 7.353685e-11 12.63262 -9.474896 9.538827 5.813566 7.275512 -21.04076 -0.6701484 -92.41569 27.36189 19.69696 -2.396051e-10 1.499625e-10 -20.15193 4.428953 15.37173 8.713566
2.753503 101.9292 25.91993 -2.251059 4.166394 2.963208 7.288757 -30.00028 5.314952 7.410942e-10 19.58585 1.594366e-11 -6.970623 -5.362272 -1.594698 -4.286429 13.84741 -17.00526 1.942337e-09 16.88355 -1.8315e-09 -1.61964 -19.19833 14.70058 -0.9129213 -2.035468 2.650461 3.404122 7.736036 -8.594893 1.009622 20.71167 7.852402 3.587269 -26.17159 9.569395 5.59811 -16.53299 11.2156 87.60692 35.27966 -22.13924 3.030327e-10 3.054477e-10 12.14328 -9.443189 10.01913 5.947141 6.768083 -20.88797 -0.5161093 -92.24077 27.02742 19.93639 -2.483507e-10 2.177908e-10 -19.32558 4.441935 15.06893 8.855463
